HIERARCHY
ROOT hip
{
  OFFSET 0 0 0
  CHANNELS 6 Xposition Yposition Zposition Zrotation Yrotation Xrotation
  JOINT abdomen
  {
    OFFSET 0 20.6881 -0.73152
    CHANNELS 3 Zrotation Xrotation Yrotation
    JOINT chest
    {
      OFFSET 0 11.7043 -0.48768
      CHANNELS 3 Zrotation Xrotation Yrotation
      JOINT neck
      {
        OFFSET 0 22.1894 -2.19456
        CHANNELS 3 Zrotation Xrotation Yrotation
        JOINT head
        {
          OFFSET -0.24384 7.07133 1.2192
          CHANNELS 3 Zrotation Xrotation Yrotation
          JOINT leftEye
          {
            OFFSET 4.14528 8.04674 8.04672
            CHANNELS 3 Zrotation Xrotation Yrotation
            End Site
            {
              OFFSET 1 0 0
            }
          }
          JOINT rightEye
          {
            OFFSET -3.6576 8.04674 8.04672
            CHANNELS 3 Zrotation Xrotation Yrotation
            End Site
            {
              OFFSET 1 0 0
            }
          }
        }
      }
      JOINT rCollar
      {
        OFFSET -2.68224 19.2634 -4.8768
        CHANNELS 3 Zrotation Xrotation Yrotation
        JOINT rShldr
        {
          OFFSET -8.77824 -1.95073 1.46304
          CHANNELS 3 Zrotation Xrotation Yrotation
          JOINT rForeArm
          {
            OFFSET -28.1742 -1.7115 0.48768
            CHANNELS 3 Zrotation Xrotation Yrotation
            JOINT rHand
            {
              OFFSET -22.5879 0.773209 7.07136
              CHANNELS 3 Zrotation Xrotation Yrotation
              JOINT rThumb1
              {
                OFFSET -1.2192 -0.487915 3.41376
                CHANNELS 3 Zrotation Xrotation Yrotation
                JOINT rThumb2
                {
                  OFFSET -3.37035 -0.52449 3.41376
                  CHANNELS 3 Zrotation Xrotation Yrotation
                  End Site
                  {
                    OFFSET -1.78271 -1.18214 1.43049
                  }
                }
              }
              JOINT rIndex1
              {
                OFFSET -7.75947 0.938293 5.60832
                CHANNELS 3 Zrotation Xrotation Yrotation
                JOINT rIndex2
                {
                  OFFSET -2.54057 -0.884171 1.56538
                  CHANNELS 3 Zrotation Xrotation Yrotation
                  End Site
                  {
                    OFFSET -1.62519 -0.234802 1.16502
                  }
                }
              }
              JOINT rMid1
              {
                OFFSET -8.24714 1.18213 3.41376
                CHANNELS 3 Zrotation Xrotation Yrotation
                JOINT rMid2
                {
                  OFFSET -3.10165 -0.590103 1.0647
                  CHANNELS 3 Zrotation Xrotation Yrotation
                  End Site
                  {
                    OFFSET -2.48547 -0.328903 0.83742
                  }
                }
              }
              JOINT rRing1
              {
                OFFSET -8.82822 0.546677 1.51678
                CHANNELS 3 Zrotation Xrotation Yrotation
                JOINT rRing2
                {
                  OFFSET -2.60934 -0.819778 -0.0198488
                  CHANNELS 3 Zrotation Xrotation Yrotation
                  End Site
                  {
                    OFFSET -2.33842 -0.294052 0.168128
                  }
                }
              }
              JOINT rPinky1
              {
                OFFSET -8.27202 -0.0477905 -0.4584
                CHANNELS 3 Zrotation Xrotation Yrotation
                JOINT rPinky2
                {
                  OFFSET -1.82734 -0.647385 -0.700984
                  CHANNELS 3 Zrotation Xrotation Yrotation
                  End Site
                  {
                    OFFSET -1.69225 -0.51767 -0.607171
                  }
                }
              }
            }
          }
        }
      }
      JOINT lCollar
      {
        OFFSET 2.68224 19.2634 -4.8768
        CHANNELS 3 Zrotation Xrotation Yrotation
        JOINT lShldr
        {
          OFFSET 8.77824 -1.95073 1.46304
          CHANNELS 3 Zrotation Xrotation Yrotation
          JOINT lForeArm
          {
            OFFSET 28.1742 -1.7115 0.48768
            CHANNELS 3 Zrotation Xrotation Yrotation
            JOINT lHand
            {
              OFFSET 22.5879 0.773209 7.07136
              CHANNELS 3 Zrotation Xrotation Yrotation
              JOINT lThumb1
              {
                OFFSET 1.2192 -0.487915 3.41376
                CHANNELS 3 Zrotation Xrotation Yrotation
                JOINT lThumb2
                {
                  OFFSET 3.37035 -0.52449 3.41376
                  CHANNELS 3 Zrotation Xrotation Yrotation
                  End Site
                  {
                    OFFSET 1.78271 -1.18214 1.43049
                  }
                }
              }
              JOINT lIndex1
              {
                OFFSET 7.75947 0.938293 5.60832
                CHANNELS 3 Zrotation Xrotation Yrotation
                JOINT lIndex2
                {
                  OFFSET 2.54057 -0.884171 1.56538
                  CHANNELS 3 Zrotation Xrotation Yrotation
                  End Site
                  {
                    OFFSET 1.62519 -0.234802 1.16502
                  }
                }
              }
              JOINT lMid1
              {
                OFFSET 8.24714 1.18213 3.41376
                CHANNELS 3 Zrotation Xrotation Yrotation
                JOINT lMid2
                {
                  OFFSET 3.10165 -0.590103 1.0647
                  CHANNELS 3 Zrotation Xrotation Yrotation
                  End Site
                  {
                    OFFSET 2.48547 -0.328903 0.83742
                  }
                }
              }
              JOINT lRing1
              {
                OFFSET 8.82822 0.546677 1.51678
                CHANNELS 3 Zrotation Xrotation Yrotation
                JOINT lRing2
                {
                  OFFSET 2.60934 -0.819778 -0.0198488
                  CHANNELS 3 Zrotation Xrotation Yrotation
                  End Site
                  {
                    OFFSET 2.33842 -0.294052 0.168128
                  }
                }
              }
              JOINT lPinky1
              {
                OFFSET 8.27202 -0.0477905 -0.4584
                CHANNELS 3 Zrotation Xrotation Yrotation
                JOINT lPinky2
                {
                  OFFSET 1.82734 -0.647385 -0.700984
                  CHANNELS 3 Zrotation Xrotation Yrotation
                  End Site
                  {
                    OFFSET 1.69225 -0.51767 -0.607171
                  }
                }
              }
            }
          }
        }
      }
    }
  }
  JOINT rButtock
  {
    OFFSET -8.77824 4.35084 1.2192
    CHANNELS 3 Zrotation Xrotation Yrotation
    JOINT rThigh
    {
      OFFSET 0 -1.70687 -2.19456
      CHANNELS 3 Zrotation Xrotation Yrotation
      JOINT rShin
      {
        OFFSET 0 -36.8199 0.73152
        CHANNELS 3 Zrotation Xrotation Yrotation
        JOINT rFoot
        {
          OFFSET 0.73152 -45.1104 -5.12064
          CHANNELS 3 Zrotation Xrotation Yrotation
          End Site
          {
            OFFSET -1.1221 -3.69964 12.103
          }
        }
      }
    }
  }
  JOINT lButtock
  {
    OFFSET 8.77824 4.35084 1.2192
    CHANNELS 3 Zrotation Xrotation Yrotation
    JOINT lThigh
    {
      OFFSET 0 -1.70687 -2.19456
      CHANNELS 3 Zrotation Xrotation Yrotation
      JOINT lShin
      {
        OFFSET 0 -36.8199 0.73152
        CHANNELS 3 Zrotation Xrotation Yrotation
        JOINT lFoot
        {
          OFFSET -0.73152 -45.1104 -5.12064
          CHANNELS 3 Zrotation Xrotation Yrotation
          End Site
          {
            OFFSET 1.1221 -3.69964 12.103
          }
        }
      }
    }
  }
}
MOTION
Frames:	5
Frame Time:	0.00833333
55.4037 96.4377 1.15714 179.638 75.1881 192.997 -1.75554 44.8021 2.11722 0.582546 -6.10178 1.2868 6.17982 15.1458 -2.74502 -11.4632 -31.5268 -8.81188 -0.0 0.0 0.0 -0.0 0.0 0.0 -4.00698e-13 -6.63941e-14 3.53091e-13 72.8524 24.0395 -11.8591 -21.5311 -15.0687 42.5405 -0.000180129 -0.383234 -0.0538608 2.78793e-10 3.03463e-10 1.53986e-09 4.71619e-10 5.16204e-10 2.66159e-09 2.788e-10 3.03478e-10 1.53985e-09 7.73091 5.47488 0.417314 2.78792e-10 3.03472e-10 1.53986e-09 2.90554 0.965183 0.102902 2.78796e-10 3.0347e-10 1.53986e-09 10.2786 0.731801 0.0259123 2.78788e-10 3.03471e-10 1.53986e-09 2.22167 -0.733487 -0.20892 -4.00779e-13 -6.63937e-14 3.52892e-13 -65.1366 25.0263 1.73849 21.5739 -15.1302 -42.6528 0.0335573 5.22164 -0.735912 2.30959e-09 -5.2815e-10 6.20583e-10 3.99624e-09 -9.15828e-10 1.06864e-09 2.30958e-09 -5.28145e-10 6.20593e-10 -7.73091 5.47488 -0.417314 2.30959e-09 -5.28156e-10 6.20577e-10 -2.90554 0.965183 -0.102902 2.30959e-09 -5.2815e-10 6.20576e-10 -10.2786 0.731801 -0.0259123 2.30959e-09 -5.2815e-10 6.20558e-10 -2.22167 -0.733487 0.20892 -2.03217e-16 0.0 -3.88251e-19 -6.61579 -45.8297 4.03019 -0.225145 32.7876 0.425001 0.20525 13.2319 -5.85747 2.03217e-16 0.0 3.88251e-19 25.4395 -68.5759 27.3989 1.1087 61.3861 -1.77209 2.74651 12.8515 -24.9109
56.7033 95.1389 1.25527 180.459 74.6922 193.579 -1.36685 44.3381 1.82681 0.453565 -5.96459 1.25052 6.11368 14.8664 -2.77949 -11.253 -31.1639 -8.81243 -0.0 0.0 0.0 -0.0 0.0 0.0 -3.65617e-13 -1.12022e-13 3.1117e-13 73.7881 24.3614 -13.3395 -21.5766 -15.1344 42.6596 -0.00066649 -0.682874 -0.0959742 3.53481e-10 3.65913e-10 1.53818e-09 6.01422e-10 6.24909e-10 2.65812e-09 3.53487e-10 3.65926e-10 1.53817e-09 7.73091 5.47488 0.417314 3.5348e-10 3.65921e-10 1.53818e-09 2.90554 0.965183 0.102902 3.53483e-10 3.65919e-10 1.53819e-09 10.2786 0.731801 0.0259123 3.53475e-10 3.6592e-10 1.53819e-09 2.22167 -0.733487 -0.20892 -3.65647e-13 -1.1202e-13 3.10977e-13 -65.9933 25.1401 3.09167 21.5139 -15.0428 -42.4999 0.0373412 5.47839 -0.772348 2.46201e-09 -8.26995e-10 5.14483e-10 4.25984e-09 -1.4336e-09 8.84291e-10 2.462e-09 -8.2699e-10 5.14492e-10 -7.73091 5.47488 -0.417314 2.46201e-09 -8.27001e-10 5.14476e-10 -2.90554 0.965183 -0.102902 2.46201e-09 -8.26996e-10 5.14477e-10 -10.2786 0.731801 -0.0259123 2.46201e-09 -8.26994e-10 5.14461e-10 -2.22167 -0.733487 0.20892 -2.03217e-16 0.0 -3.88251e-19 -6.30306 -44.3891 3.928 -0.208961 30.9146 0.349662 0.443028 14.3249 -6.68221 2.03217e-16 0.0 3.88251e-19 23.1792 -67.2716 25.7333 0.90523 58.1602 -1.56298 3.09829 13.3301 -24.5492
58.0403 93.7509 1.34036 181.374 74.2241 194.129 -0.948123 43.9152 1.5373 0.290886 -5.85831 1.21749 6.03186 14.5777 -2.79992 -11.0011 -30.8163 -8.77701 -0.0 0.0 0.0 -0.0 0.0 0.0 -2.8668e-13 -1.73935e-13 2.25068e-13 74.7171 24.6869 -14.8663 -21.6299 -15.2115 42.7998 -0.00115346 -0.949846 -0.133502 4.9469e-10 4.2079e-10 1.2413e-09 8.47696e-10 7.21715e-10 2.14405e-09 4.94693e-10 4.208e-10 1.24129e-09 7.73091 5.47488 0.417314 4.94688e-10 4.20797e-10 1.24131e-09 2.90554 0.965183 0.102902 4.94689e-10 4.20795e-10 1.24131e-09 10.2786 0.731801 0.0259123 4.94682e-10 4.20797e-10 1.24132e-09 2.22167 -0.733487 -0.20892 -2.86615e-13 -1.73937e-13 2.24888e-13 -66.8835 25.1346 4.58514 21.495 -15.0157 -42.4504 0.0394007 5.62889 -0.793701 2.1808e-09 -8.2133e-10 4.36389e-10 3.77329e-09 -1.42402e-09 7.49381e-10 2.18079e-09 -8.21328e-10 4.36398e-10 -7.73091 5.47488 -0.417314 2.1808e-09 -8.21336e-10 4.36382e-10 -2.90554 0.965183 -0.102902 2.18079e-09 -8.21332e-10 4.36384e-10 -10.2786 0.731801 -0.0259123 2.1808e-09 -8.21329e-10 4.36374e-10 -2.22167 -0.733487 0.20892 -2.03217e-16 0.0 -3.88251e-19 -5.93021 -42.9416 3.64646 -0.198943 29.4916 0.279814 0.735744 15.5328 -7.54255 2.03217e-16 0.0 3.88251e-19 21.2722 -65.841 24.3615 0.759579 55.2495 -1.40478 3.34793 13.6971 -24.0916
59.4049 92.2825 1.40989 182.322 73.7836 194.59 -0.543604 43.5477 1.26712 0.125174 -5.78563 1.18797 5.93882 14.3169 -2.80874 -10.7481 -30.5345 -8.72241 -0.0 0.0 0.0 -0.0 0.0 0.0 -2.13506e-13 -2.17362e-13 1.501e-13 75.5923 24.9714 -16.3892 -21.6808 -15.2854 42.9347 -0.00169348 -1.18402 -0.166426 7.01115e-10 5.13664e-10 9.23426e-10 1.20667e-09 8.8406e-10 1.59388e-09 7.01116e-10 5.1367e-10 9.23416e-10 7.73091 5.47488 0.417314 7.01113e-10 5.13669e-10 9.23426e-10 2.90554 0.965183 0.102902 7.01113e-10 5.13668e-10 9.23431e-10 10.2786 0.731801 0.0259123 7.01107e-10 5.1367e-10 9.23443e-10 2.22167 -0.733487 -0.20892 -2.13348e-13 -2.17366e-13 1.49936e-13 -67.7644 25.0273 6.11489 21.4875 -15.0056 -42.4284 0.0400855 5.69334 -0.802831 1.78372e-09 -6.17986e-10 4.26438e-10 3.08635e-09 -1.07209e-09 7.32832e-10 1.78372e-09 -6.17987e-10 4.26447e-10 -7.73091 5.47488 -0.417314 1.78372e-09 -6.17991e-10 4.26431e-10 -2.90554 0.965183 -0.102902 1.78371e-09 -6.17989e-10 4.26435e-10 -10.2786 0.731801 -0.0259123 1.78373e-09 -6.17985e-10 4.2643e-10 -2.22167 -0.733487 0.20892 -2.03217e-16 0.0 -3.88251e-19 -5.50666 -41.5395 3.31659 -0.194755 28.5936 0.226992 0.943394 16.2519 -8.13312 2.03217e-16 0.0 3.88251e-19 19.5346 -64.3697 23.0204 0.655631 52.7264 -1.28471 3.52226 13.9797 -23.5952
60.8019 90.6708 1.45937 183.231 73.376 194.905 -0.196603 43.2501 1.03407 -0.0128995 -5.74925 1.16222 5.83896 14.121 -2.80833 -10.534 -30.3694 -8.6649 -0.0 0.0 0.0 -0.0 0.0 0.0 -1.95709e-13 -2.07531e-13 1.41584e-13 76.36 25.1739 -17.8552 -21.7195 -15.3418 43.0381 -0.00235413 -1.38528 -0.194727 9.71454e-10 6.90104e-10 8.5875e-10 1.67459e-09 1.18938e-09 1.48209e-09 9.71455e-10 6.90108e-10 8.5874e-10 7.73091 5.47488 0.417314 9.71452e-10 6.90108e-10 8.5875e-10 2.90554 0.965183 0.102902 9.71452e-10 6.90107e-10 8.58756e-10 10.2786 0.731801 0.0259123 9.71447e-10 6.90109e-10 8.58769e-10 2.22167 -0.733487 -0.20892 -1.95512e-13 -2.0753e-13 1.41435e-13 -68.5954 24.8405 7.57794 21.4613 -14.9687 -42.3576 0.0399013 5.69197 -0.802623 1.58856e-09 -3.23793e-10 5.24766e-10 2.74879e-09 -5.62837e-10 9.03564e-10 1.58855e-09 -3.23796e-10 5.24776e-10 -7.73091 5.47488 -0.417314 1.58856e-09 -3.23797e-10 5.2476e-10 -2.90554 0.965183 -0.102902 1.58855e-09 -3.23796e-10 5.24765e-10 -10.2786 0.731801 -0.0259123 1.58856e-09 -3.23791e-10 5.24763e-10 -2.22167 -0.733487 0.20892 -2.03217e-16 0.0 -3.88251e-19 -5.06037 -40.2372 3.05636 -0.195717 28.2956 0.202769 0.893544 15.8855 -8.1363 2.03217e-16 0.0 3.88251e-19 17.8226 -62.9321 21.4799 0.58194 50.6628 -1.19475 3.64868 14.2052 -23.1175
